# xmcd
#
# Track frame offsets:
#	150
#	15170
#	29700
#	53773
#	75880
#	100573
#	129675
#	151090
#	174773
#	193408
#
# Disc length: 2871 seconds
#
# Revision: 1
# Processed by: cddbd v1.4PL0 Copyright (c) Steve Scherf et al.
# Submitted via: audiograbber 1.81.01
#
DISCID=690b350a
DTITLE=New Riders of the Purple Sage - Live On Stage
DYEAR=1975
DGENRE=
TTITLE0=Panama Red
TTITLE1=Little Old Lady
TTITLE2=Instant Armadillo Blues
TTITLE3=Henry
TTITLE4=Glendale Train
TTITLE5=Nadine
TTITLE6=Singing Cowboy
TTITLE7=Take A Letter Maria
TTITLE8=I Will Never Make You Blue
TTITLE9=La Bamba
EXTD=
EXTT0=
EXTT1=
EXTT2=
EXTT3=
EXTT4=
EXTT5=
EXTT6=
EXTT7=
EXTT8=
EXTT9=
PLAYORDER=
